<svg xmlns="http://www.w3.org/2000/svg" width="30" height="21.493" viewBox="0 0 29.92 21.493">
  <path id="cloudSync" d="M5.556,22.58A6.7,6.7,0,0,0,6.1,25.288a7,7,0,0,0,1.469,2.233,7.493,7.493,0,0,0,4.9,2.161.22.22,0,0,0,.245-.245V27.521c0-.173-.086-.274-.245-.274a4.662,4.662,0,0,1-3.155-1.484,4.634,4.634,0,0,1-.058-6.338,4.469,4.469,0,0,1,3.025-1.5l.749-.1c.187,0,.288-.086.288-.245l.1-.749a6.1,6.1,0,0,1,.994-2.809A6.193,6.193,0,0,1,23.62,12.9a5.778,5.778,0,0,1,2,3.889l.086.821c0,.173.086.259.274.259H28.3a4.772,4.772,0,0,1,4.739,4.711,4.475,4.475,0,0,1-1.282,3.184A4.662,4.662,0,0,1,28.6,27.247c-.187,0-.288.086-.288.274v1.916c0,.158.1.245.288.245a7.048,7.048,0,0,0,4.883-2.175,6.807,6.807,0,0,0,1.988-4.927,6.893,6.893,0,0,0-.965-3.573A7.144,7.144,0,0,0,31.9,16.414a7.032,7.032,0,0,0-3.573-.965H27.87a8.568,8.568,0,0,0-3.04-4.725A8.48,8.48,0,0,0,19.486,8.88a8.293,8.293,0,0,0-5.4,1.916,8.571,8.571,0,0,0-3.04,4.869,6.872,6.872,0,0,0-3.933,2.507A6.812,6.812,0,0,0,5.556,22.58Zm8.975,1.829a5.865,5.865,0,0,0,.807,2.982,5.944,5.944,0,0,0,2.175,2.175,5.639,5.639,0,0,0,2.968.807,5.831,5.831,0,0,0,4.25-1.757A5.739,5.739,0,0,0,26.5,24.409a1.243,1.243,0,0,0-2.118-.864,1.19,1.19,0,0,0-.375.864A3.429,3.429,0,0,1,22.972,26.9a3.515,3.515,0,0,1-5.993-2.492,3.757,3.757,0,0,1,.763-2.3,2.573,2.573,0,0,1,1.887-1.109l-.591.562a1.118,1.118,0,0,0-.331.821,1.419,1.419,0,0,0,.331.951.991.991,0,0,0,.763.331,1.743,1.743,0,0,0,1.008-.331l2.622-2.694a1.2,1.2,0,0,0,0-1.714l-2.622-2.636a1.244,1.244,0,0,0-.893-.375,1.122,1.122,0,0,0-.85.36,1.229,1.229,0,0,0-.346.879,1.076,1.076,0,0,0,.331.836l.5.519a5.868,5.868,0,0,0-3.587,2.017A5.682,5.682,0,0,0,14.531,24.409Z" transform="translate(-5.556 -8.88)" fill="#fff" opacity="0.84"/>
</svg>
