<svg id="Blank_Canvas_svg" data-name="Blank Canvas svg" xmlns="http://www.w3.org/2000/svg" width="357.248" height="368.455" viewBox="0 0 357.248 368.455">
  <path id="Path_3" data-name="Path 3" d="M655.976,692.331H558.2a4.292,4.292,0,0,1-4.287-4.287v-68.36A4.292,4.292,0,0,1,558.2,615.4h97.776a4.292,4.292,0,0,1,4.287,4.287v68.361A4.292,4.292,0,0,1,655.976,692.331Z" transform="translate(-405.186 -323.875)" fill="#f2f2f2"/>
  <path id="Path_4" data-name="Path 4" d="M456.716,417.964a7.283,7.283,0,0,0-2.332-10.921l-.616-65.4-12.223,5.609,2.688,63.249a7.322,7.322,0,0,0,12.483,7.46Z" transform="translate(-365.711 -227.708)" fill="#9e616a"/>
  <path id="Path_5" data-name="Path 5" d="M452.541,315.294s-11.89-5.768-13.535,5.114-8.408,39.2-8.408,39.2l20.525-1.452Z" transform="translate(-361.866 -217.914)" fill="#9e616a"/>
  <path id="Path_6" data-name="Path 6" d="M456.716,417.964a7.283,7.283,0,0,0-2.332-10.921l-.616-65.4-12.223,5.609,2.688,63.249a7.322,7.322,0,0,0,12.483,7.46Z" transform="translate(-365.711 -227.708)" fill="#9e616a"/>
  <path id="Path_7" data-name="Path 7" d="M452.541,315.294s-11.89-5.768-13.535,5.114-8.408,39.2-8.408,39.2l20.525-1.452Z" transform="translate(-361.866 -217.914)" fill="#6c63ff"/>
  <path id="Path_8" data-name="Path 8" d="M381.01,658.791a2.344,2.344,0,0,1-1.7-4.063l.161-.638-.064-.153a6.294,6.294,0,0,0-11.611.043c-1.9,4.574-4.317,9.155-4.912,13.991a18.621,18.621,0,0,0,.327,6.4,74.656,74.656,0,0,1-6.791-31.007,72.052,72.052,0,0,1,.447-8.039q.37-3.282,1.027-6.518A75.522,75.522,0,0,1,372.872,596.8a20.1,20.1,0,0,0,8.359-8.672,15.33,15.33,0,0,0,1.394-4.189c-.407.053-.821.087-1.227.113l-.387.02-.048,0a2.322,2.322,0,0,1-1.907-3.783l.527-.648c.267-.334.54-.66.807-.994a1.138,1.138,0,0,0,.087-.1c.307-.38.614-.754.921-1.134a6.715,6.715,0,0,0-2.2-2.128c-3.075-1.8-7.318-.554-9.54,2.228s-2.648,6.684-1.875,10.16a26.911,26.911,0,0,0,3.723,8.3c-.167.214-.34.42-.507.634a76.01,76.01,0,0,0-7.933,12.568,31.6,31.6,0,0,0-1.886-14.677c-1.806-4.356-5.19-8.024-8.17-11.79a6.486,6.486,0,0,0-11.552,3.185q-.009.083-.018.167.664.375,1.3.8a3.179,3.179,0,0,1-1.282,5.786l-.065.01a31.634,31.634,0,0,0,.834,4.73A32.571,32.571,0,0,0,358.441,617.8c.26.133.514.267.774.394a77.586,77.586,0,0,0-4.176,19.653,73.583,73.583,0,0,0,.053,11.881l-.02-.14a19.444,19.444,0,0,0-6.638-11.227c-5.108-4.2-12.325-5.741-17.836-9.114a3.649,3.649,0,0,0-5.589,3.55l.023.147a21.366,21.366,0,0,1,2.395,1.154q.664.375,1.3.8a3.179,3.179,0,0,1-1.282,5.786l-.065.01-.133.02a31.662,31.662,0,0,0,5.824,9.119A32.6,32.6,0,0,0,356.714,660.2h.007a77.558,77.558,0,0,0,5.21,15.21h18.612c.067-.207.127-.42.187-.627a21.15,21.15,0,0,1-5.15-.307c1.381-1.694,2.762-3.4,4.143-5.1a1.156,1.156,0,0,0,.087-.1c.7-.867,1.408-1.728,2.108-2.6h0a30.974,30.974,0,0,0-.908-7.891Z" transform="translate(-324.762 -309.49)" fill="#f2f2f2"/>
  <path id="Path_9" data-name="Path 9" d="M804.01,658.791a2.344,2.344,0,0,1-1.7-4.063l.161-.638-.064-.153a6.294,6.294,0,0,0-11.611.043c-1.9,4.574-4.317,9.155-4.912,13.991a18.626,18.626,0,0,0,.327,6.4,74.657,74.657,0,0,1-6.791-31.007,72.074,72.074,0,0,1,.447-8.039q.37-3.282,1.027-6.518A75.523,75.523,0,0,1,795.872,596.8a20.1,20.1,0,0,0,8.359-8.672,15.336,15.336,0,0,0,1.394-4.189c-.407.053-.821.087-1.227.113l-.387.02-.048,0a2.322,2.322,0,0,1-1.907-3.783l.527-.648c.267-.334.54-.66.807-.994a1.147,1.147,0,0,0,.087-.1c.307-.38.614-.754.921-1.134a6.714,6.714,0,0,0-2.2-2.128c-3.075-1.8-7.318-.554-9.54,2.228s-2.648,6.684-1.875,10.16a26.91,26.91,0,0,0,3.723,8.3c-.167.214-.34.42-.507.634a76.011,76.011,0,0,0-7.933,12.568,31.6,31.6,0,0,0-1.886-14.677c-1.806-4.356-5.19-8.024-8.17-11.79a6.486,6.486,0,0,0-11.552,3.185q-.009.083-.018.167.664.375,1.3.8a3.179,3.179,0,0,1-1.282,5.786l-.065.01a31.631,31.631,0,0,0,.834,4.73A32.571,32.571,0,0,0,781.441,617.8c.26.133.514.267.774.394a77.583,77.583,0,0,0-4.176,19.653,73.573,73.573,0,0,0,.053,11.881l-.02-.14a19.444,19.444,0,0,0-6.638-11.227c-5.108-4.2-12.325-5.741-17.836-9.114a3.649,3.649,0,0,0-5.589,3.55q.011.074.023.147a21.36,21.36,0,0,1,2.395,1.154q.664.375,1.3.8a3.179,3.179,0,0,1-1.282,5.786l-.065.01-.133.02a31.662,31.662,0,0,0,5.824,9.119A32.6,32.6,0,0,0,779.714,660.2h.007a77.55,77.55,0,0,0,5.21,15.21h18.612c.067-.207.127-.42.187-.627a21.15,21.15,0,0,1-5.15-.307c1.381-1.694,2.762-3.4,4.143-5.1a1.135,1.135,0,0,0,.087-.1c.7-.867,1.408-1.728,2.108-2.6h0a30.977,30.977,0,0,0-.908-7.891Z" transform="translate(-473.36 -309.49)" fill="#f2f2f2"/>
  <path id="Path_10" data-name="Path 10" d="M694.552,531.8l-.161,0a5.3,5.3,0,0,1-5-5.355,14.513,14.513,0,0,0-28.015-5.321l-2.767,6.946a12.761,12.761,0,0,1-18.025,0l-.164-.164.1-.208,48.87-99.987v-2.45a12.639,12.639,0,0,1,0-2.27V171.162a5.155,5.155,0,0,1,5.313-5.153,5.3,5.3,0,0,1,5,5.355V423.02a12.645,12.645,0,0,1,0,2.27v2.421l48.971,100.2-.164.164a12.761,12.761,0,0,1-18.025,0l-.073-.11-2.694-6.836a14.513,14.513,0,0,0-28.015,5.321v.2a5.155,5.155,0,0,1-5.153,5.155Z" transform="translate(-435.577 -166.007)" fill="#e6e6e6"/>
  <path id="Path_11" data-name="Path 11" d="M760.626,370.757H581.712a7.853,7.853,0,0,1-7.845-7.844V237.825a7.853,7.853,0,0,1,7.845-7.845H760.626a7.853,7.853,0,0,1,7.844,7.845V362.913a7.853,7.853,0,0,1-7.844,7.844Z" transform="translate(-412.196 -188.48)" fill="#fff"/>
  <path id="Path_12" data-name="Path 12" d="M760.1,371.2H581.185a8.828,8.828,0,0,1-8.818-8.817V237.3a8.827,8.827,0,0,1,8.818-8.817H760.1a8.827,8.827,0,0,1,8.817,8.817V362.386A8.827,8.827,0,0,1,760.1,371.2ZM581.185,230.426a6.879,6.879,0,0,0-6.872,6.871V362.386a6.879,6.879,0,0,0,6.872,6.871H760.1a6.879,6.879,0,0,0,6.871-6.871V237.3a6.879,6.879,0,0,0-6.871-6.871Z" transform="translate(-411.669 -187.953)" fill="#f2f2f2"/>
  <path id="Path_13" data-name="Path 13" d="M729.138,235.06H676.232a12.666,12.666,0,0,1-12.652-12.652v-.23h78.21v.23A12.666,12.666,0,0,1,729.138,235.06Z" transform="translate(-443.711 -185.74)" fill="#e6e6e6"/>
  <path id="Path_14" data-name="Path 14" d="M729.492,452.073H676.586a12.666,12.666,0,0,1-12.652-12.651v-.23h78.21v.23a12.666,12.666,0,0,1-12.652,12.652Z" transform="translate(-443.836 -261.976)" fill="#e6e6e6"/>
  <path id="Path_15" data-name="Path 15" d="M681.218,730.471a.77.77,0,0,1-.772.772H325.417a.772.772,0,1,1,0-1.544H680.446a.77.77,0,0,1,.772.772Z" transform="translate(-324.645 -364.029)" fill="#ccc"/>
  <path id="Path_16" data-name="Path 16" d="M184.3,517.647h9.352l4.449-36.072H184.3Z" transform="translate(-64.745 -169.175)" fill="#9e616a"/>
  <path id="Path_17" data-name="Path 17" d="M503.059,695.6l14.783-.882v6.334l14.055,9.707a3.956,3.956,0,0,1-2.248,7.212h-17.6l-3.034-6.265-1.185,6.265H501.2Z" transform="translate(-386.666 -351.74)" fill="#2f2e41"/>
  <path id="Path_18" data-name="Path 18" d="M134.359,223.628l-.916,4.366-.779,16.1,31.3-4.237,2.4-18.648-3.322-5.458Z" transform="translate(-46.604 -75.794)" fill="#9e616a"/>
  <path id="Path_19" data-name="Path 19" d="M111.346,517.647H120.7l4.449-36.072h-13.8Z" transform="translate(-39.115 -169.175)" fill="#9e616a"/>
  <path id="Path_20" data-name="Path 20" d="M427.948,537.334v-.1l3.5-16.342,2.159-8.136-6-47.634c-1.413-34.607,18.665-51.243,18.823-51.407l.435-.453,32.2-.788c17.325,10.38,15.363,67.153,18.536,105.764.226,2.753,3.069,6.817,2.37,9.436-5.544,20.776-3.92,43.243-8.143,43.908l-12.949-.18-6.688-30.352,6.173-23.15c-2.738-.5-4.63-13.89-4.63-13.89-1.193-1.417-5.312-13.464-5.312-13.464L462.93,457.2l-8.823,57.361,2.125,13.457-1.758,4.627-7.53,38.2-.08.615-14.2-1.417Z" transform="translate(-360.79 -252.591)" fill="#2f2e41"/>
  <path id="Path_21" data-name="Path 21" d="M430.1,695.6l14.783-.882v6.334l14.055,9.707a3.956,3.956,0,0,1-2.248,7.212h-17.6l-3.034-6.265-1.184,6.265h-6.636Z" transform="translate(-361.036 -351.74)" fill="#2f2e41"/>
  <path id="Path_22" data-name="Path 22" d="M482.031,296.576l7.893,8.77,9.481,17.87-4.657,22.035,2.036,10.34,3.007,11.367c-11.586,6.409-25.347-2.442-37.99-6.373l-12.44,5.5.658-15.129.337-38.118a10.684,10.684,0,0,1,11.5-10.558h0l8.332-6.139Z" transform="translate(-368.457 -211.721)" fill="#6c63ff"/>
  <circle id="Ellipse_2" data-name="Ellipse 2" cx="16.644" cy="16.644" r="16.644" transform="translate(94.719 46.976)" fill="#9e616a"/>
  <path id="Path_23" data-name="Path 23" d="M501.271,246.32c-.293,1.631-7.3,2.418-7.089-.484-1.363,2.732-3.4,6.7-.806,11.237a7.125,7.125,0,0,0-.961,8.312,21.511,21.511,0,0,1,1.847,3.791,5.766,5.766,0,0,1,.211.983,1.88,1.88,0,0,1-2.675,1.929c-7.058-3.457-19.367-2.871-27.088-.762q.077-2.253-.062-4.5a11.115,11.115,0,0,1-2.192,5.134c-1.322.391-2.618.8-3.874,1.2a1.113,1.113,0,0,1-1.415-1.358,6.258,6.258,0,0,0,.134-2.726,30.056,30.056,0,0,0-1.934-5.371c-.669-1.785-1.049-3.838-.232-5.561,1.271-2.675,4.851-3.493,6.431-6,1.775-2.814.4-6.482.674-9.8.391-4.692,4.234-8.5,8.566-10.345,7.5-3.19,16.884-.607,22.507,5.289a5.149,5.149,0,0,1,5.386-.232c1.662.89,2.855,1.353,3.6,3.087C502.953,241.669,501.569,244.684,501.271,246.32Z" transform="translate(-370.323 -188.707)" fill="#2f2e41"/>
  <path id="Path_24" data-name="Path 24" d="M493.9,518.264l-39.159-39.159a2.431,2.431,0,0,1,0-3.434l27.378-27.378a2.431,2.431,0,0,1,3.434,0l39.159,39.159a2.431,2.431,0,0,1,0,3.434l-27.378,27.378a2.431,2.431,0,0,1-3.434,0Z" transform="translate(-370.096 -264.924)" fill="#fff"/>
  <path id="Path_25" data-name="Path 25" d="M495.261,519.271a3.055,3.055,0,0,1-2.175-.9l-39.159-39.158a3.079,3.079,0,0,1,0-4.351L481.3,447.484a3.079,3.079,0,0,1,4.351,0l39.159,39.159a3.079,3.079,0,0,1,0,4.351l-27.378,27.378a3.056,3.056,0,0,1-2.175.9ZM483.48,447.882a1.764,1.764,0,0,0-1.258.52L454.844,475.78a1.782,1.782,0,0,0,0,2.516L494,517.454a1.826,1.826,0,0,0,2.516,0L523.9,490.076a1.782,1.782,0,0,0,0-2.516L484.738,448.4a1.765,1.765,0,0,0-1.258-.52Z" transform="translate(-369.745 -264.573)" fill="#e6e6e6"/>
  <path id="Path_26" data-name="Path 26" d="M491.906,412.964a7.283,7.283,0,0,1,2.332-10.921l.616-65.4,12.223,5.609L504.389,405.5a7.322,7.322,0,0,1-12.483,7.46Z" transform="translate(-382.86 -225.951)" fill="#9e616a"/>
  <path id="Path_27" data-name="Path 27" d="M493.249,310.294s11.89-5.768,13.535,5.114,8.408,39.2,8.408,39.2l-20.525-1.452Z" transform="translate(-383.875 -216.158)" fill="#9e616a"/>
  <path id="Path_28" data-name="Path 28" d="M491.906,412.964a7.283,7.283,0,0,1,2.332-10.921l.616-65.4,12.223,5.609L504.389,405.5a7.322,7.322,0,0,1-12.483,7.46Z" transform="translate(-382.86 -225.951)" fill="#9e616a"/>
  <path id="Path_29" data-name="Path 29" d="M493.249,310.294s11.89-5.768,13.535,5.114,8.408,39.2,8.408,39.2l-20.525-1.452Z" transform="translate(-383.875 -216.158)" fill="#6c63ff"/>
</svg>
